<?xml version="1.0" standalone="no"?>
<!DOCTYPE svg PUBLIC "-//W3C//DTD SVG 20010904//EN"
 "http://www.w3.org/TR/2001/REC-SVG-20010904/DTD/svg10.dtd">
<svg version="1.0" xmlns="http://www.w3.org/2000/svg"
 width="512.000000pt" height="512.000000pt" viewBox="0 0 512.000000 512.000000"
 preserveAspectRatio="xMidYMid meet">

<g transform="translate(0.000000,512.000000) scale(0.100000,-0.100000)"
fill="#000000" stroke="none">
<path d="M1495 4651 c-130 -50 -177 -74 -226 -118 -52 -48 -87 -108 -95 -166
-6 -42 -15 -55 -83 -121 -41 -41 -77 -74 -78 -72 -1 1 6 24 16 52 29 76 44
191 40 312 -6 151 -13 156 -92 71 -118 -125 -176 -255 -185 -411 -4 -92 -3
-101 23 -152 34 -67 31 -81 -38 -185 -83 -127 -78 -121 -71 -81 13 66 8 243
-9 307 -21 78 -64 166 -80 160 -16 -5 -52 -68 -78 -137 -54 -142 -79 -376 -50
-465 8 -22 27 -58 42 -79 38 -52 37 -87 -6 -206 l-34 -95 0 61 c-2 118 -51
261 -128 367 -55 75 -70 64 -97 -65 -10 -48 -16 -128 -16 -210 0 -194 25 -276
113 -372 50 -54 58 -77 46 -139 -4 -23 -8 -68 -9 -99 0 -66 -15 -84 -25 -30
-10 57 -79 191 -128 250 -52 63 -135 134 -151 129 -19 -6 -25 -79 -15 -187 22
-247 115 -440 234 -486 55 -21 61 -38 70 -197 3 -65 8 -125 11 -135 3 -9 -9 8
-27 38 -53 90 -171 201 -260 244 -101 48 -109 47 -109 -8 0 -107 94 -314 191
-419 67 -73 126 -107 186 -107 53 0 69 -22 110 -145 17 -49 40 -114 52 -144
l22 -54 -42 38 c-75 68 -217 120 -344 127 l-60 3 3 -33 c3 -47 45 -126 108
-204 104 -129 210 -192 324 -192 36 0 74 5 86 11 27 15 56 -9 119 -102 26 -38
59 -84 72 -102 l24 -32 -53 22 c-45 18 -73 21 -183 22 -116 0 -136 -3 -190
-25 -33 -14 -61 -32 -63 -41 -4 -24 83 -109 154 -151 176 -103 351 -122 453
-48 46 34 57 32 116 -15 22 -18 66 -50 97 -72 l57 -40 -82 -1 c-57 0 -102 -7
-147 -22 -75 -25 -184 -87 -219 -124 -29 -31 -20 -46 49 -81 85 -43 158 -59
275 -59 156 -1 210 17 288 96 67 69 61 68 211 23 l90 -28 18 23 c29 36 22 47
-39 64 -32 9 -92 29 -133 44 l-75 27 -6 110 c-4 61 -12 130 -19 155 -34 126
-141 266 -248 323 -46 25 -53 26 -58 12 -8 -19 31 -265 53 -339 8 -28 26 -73
40 -100 l25 -49 -44 32 c-23 17 -73 56 -110 87 -79 64 -79 66 -47 195 29 111
22 240 -17 359 -32 95 -119 233 -150 238 -20 3 -22 -6 -39 -166 -10 -96 -16
-206 -13 -256 4 -87 4 -88 -14 -64 -10 12 -39 56 -63 96 -51 83 -51 96 -2 177
68 113 98 275 78 420 -13 93 -50 208 -75 233 -14 14 -18 10 -39 -39 -74 -168
-126 -338 -127 -419 -1 -50 -12 -26 -55 115 -21 71 -34 129 -30 143 3 13 38
57 76 98 116 123 179 283 179 459 0 110 -9 155 -29 155 -34 0 -244 -305 -276
-400 -6 -18 -11 10 -18 99 -12 157 -5 177 84 221 98 50 183 149 236 275 40 94
67 275 44 289 -11 7 -199 -143 -257 -205 -23 -24 -53 -62 -67 -83 l-26 -40 5
40 c3 21 15 84 26 138 19 100 31 121 73 130 11 2 46 10 78 16 90 18 170 78
238 179 64 94 125 229 109 245 -16 16 -298 -109 -359 -160 l-32 -26 21 53 c40
102 79 179 92 180 7 1 60 2 118 3 98 1 110 3 175 35 104 51 251 211 220 240
-6 5 -63 5 -137 0 -114 -8 -173 -20 -253 -54 -21 -10 81 142 108 159 11 7 35
3 82 -13 88 -31 194 -27 278 12 58 26 177 129 177 153 0 20 -13 24 -113 40
-108 16 -189 18 -236 4 -33 -9 -33 -9 -15 11 46 51 94 80 151 90 129 24 242
117 309 255 41 85 54 144 33 144 -8 0 -59 -18 -114 -39z"/>
<path d="M3503 4655 c10 -60 74 -180 128 -239 55 -60 170 -126 220 -126 43 0
71 -14 124 -64 l50 -45 -35 9 c-48 14 -129 12 -237 -4 -100 -16 -113 -20 -113
-40 0 -24 119 -127 177 -153 84 -38 190 -43 276 -13 36 13 71 20 79 17 15 -5
103 -123 114 -151 5 -13 -1 -13 -38 4 -80 35 -345 60 -355 33 -8 -19 60 -115
115 -164 25 -21 75 -54 111 -72 61 -30 74 -32 171 -33 58 -1 111 -2 118 -3 13
-1 52 -78 92 -180 l21 -53 -32 26 c-63 53 -343 176 -360 159 -19 -19 71 -202
145 -296 45 -57 136 -114 204 -127 31 -7 66 -14 77 -16 42 -9 54 -30 73 -130
11 -54 23 -117 26 -138 l5 -40 -26 40 c-14 21 -44 59 -67 83 -58 62 -246 212
-257 205 -23 -14 4 -195 44 -289 53 -126 138 -225 236 -275 89 -44 96 -64 84
-221 -7 -89 -12 -117 -18 -99 -32 95 -242 400 -276 400 -20 0 -29 -45 -29
-155 0 -176 63 -336 179 -459 38 -41 73 -85 76 -98 4 -14 -9 -72 -30 -143 -43
-141 -54 -165 -55 -115 -1 81 -53 251 -127 419 -21 49 -25 53 -39 39 -26 -25
-63 -142 -75 -237 -20 -145 10 -303 78 -416 49 -81 49 -94 -2 -177 -24 -40
-53 -84 -63 -96 -18 -24 -18 -23 -14 64 3 50 -3 160 -13 256 -17 160 -19 169
-39 166 -31 -5 -118 -143 -150 -238 -39 -119 -46 -248 -17 -359 32 -129 32
-131 -46 -195 -38 -31 -88 -70 -111 -87 l-44 -32 25 49 c14 27 32 72 40 100
22 74 61 320 53 339 -5 14 -12 13 -58 -12 -117 -63 -224 -210 -253 -350 -8
-38 -15 -105 -15 -151 l0 -83 -42 -18 c-48 -20 -122 -44 -185 -61 -47 -12 -53
-26 -25 -60 l19 -23 106 32 c59 17 114 31 122 31 9 0 41 -26 73 -58 38 -38 74
-63 107 -75 72 -26 213 -33 303 -14 83 18 183 60 208 88 16 18 16 20 -7 45
-34 37 -143 99 -216 123 -44 15 -88 21 -149 21 l-87 0 59 41 c32 23 77 56 99
74 59 47 70 49 116 16 93 -68 243 -61 402 20 116 58 217 149 204 184 -3 7 -32
23 -64 36 -50 20 -76 23 -188 23 -110 0 -138 -3 -183 -21 l-53 -22 24 32 c13
18 46 64 72 102 63 93 92 117 119 102 12 -6 50 -11 86 -11 114 0 220 63 324
192 63 78 105 157 108 204 l3 33 -60 -3 c-127 -7 -269 -59 -344 -127 l-42 -38
22 54 c12 30 35 95 52 144 41 123 57 145 110 145 60 0 119 34 186 107 97 105
191 312 191 419 0 55 -8 56 -109 8 -89 -43 -207 -154 -260 -244 -18 -30 -30
-47 -27 -38 3 10 8 70 11 135 9 159 15 176 70 197 119 46 212 239 234 486 10
108 4 181 -15 187 -16 5 -99 -66 -151 -129 -49 -59 -118 -193 -128 -250 -10
-54 -25 -36 -25 30 -1 31 -5 76 -9 99 -12 62 -5 83 46 138 88 96 113 179 113
373 0 82 -6 162 -16 210 -27 129 -42 140 -97 65 -76 -105 -116 -213 -124 -337
l-6 -89 -33 94 c-42 118 -43 153 -5 205 15 21 34 57 42 79 29 89 4 323 -50
465 -29 77 -64 135 -81 135 -18 0 -56 -77 -77 -156 -17 -66 -22 -230 -10 -304
8 -45 14 -52 -70 76 -69 104 -72 118 -38 185 26 51 27 60 23 152 -9 156 -67
286 -185 411 -79 85 -86 80 -92 -71 -4 -121 11 -236 40 -312 10 -28 17 -51 16
-52 -1 -2 -37 31 -78 72 -68 66 -77 79 -83 121 -12 87 -84 176 -183 226 -55
28 -236 97 -254 97 -8 0 -10 -12 -6 -35z"/>
<path d="M2460 3825 l0 -285 -400 0 -400 0 0 -100 0 -100 400 0 400 0 0 -484
0 -485 -32 14 c-18 7 -116 50 -217 94 -102 45 -189 81 -193 81 -4 0 -8 -51 -8
-114 l0 -113 225 -98 225 -98 0 -563 0 -564 100 0 100 0 2 519 3 519 214 -94
c118 -52 218 -94 223 -94 4 0 8 51 8 114 l0 114 -102 45 c-57 24 -158 68 -225
98 l-123 53 0 528 0 528 400 0 400 0 0 100 0 100 -400 0 -400 0 0 285 0 285
-100 0 -100 0 0 -285z"/>
</g>
</svg>
